<svg xmlns="http://www.w3.org/2000/svg" version="1.1" viewBox="0 0 12.70004 12.70003" id="SettingsIcon"><path d="M107.45 134.21a6.35 6.35 0 0 0-.48.02c-.32.42-.48 1.25-.78 1.77a4.74 4.74 0 0 0-1.06.44c-.59-.16-1.28-.63-1.8-.7a6.35 6.35 0 0 0-.7.69c.08.53.55 1.22.7 1.8a4.74 4.74 0 0 0-.44 1.06c-.52.3-1.34.46-1.76.79a6.35 6.35 0 0 0-.02.48 6.35 6.35 0 0 0 .02.49c.42.32 1.24.48 1.77.78a4.74 4.74 0 0 0 .43 1.06c-.15.59-.62 1.28-.7 1.8a6.35 6.35 0 0 0 .7.7c.52-.08 1.21-.55 1.8-.7a4.74 4.74 0 0 0 1.06.43c.3.53.46 1.35.78 1.77a6.35 6.35 0 0 0 .49.02 6.35 6.35 0 0 0 .48-.02c.32-.42.48-1.24.79-1.77a4.74 4.74 0 0 0 1.05-.43c.6.15 1.28.62 1.81.7a6.35 6.35 0 0 0 .69-.7c-.07-.52-.54-1.21-.7-1.8a4.74 4.74 0 0 0 .44-1.06c.52-.3 1.35-.46 1.77-.78a6.35 6.35 0 0 0 .02-.49 6.35 6.35 0 0 0-.02-.48c-.42-.33-1.25-.48-1.77-.79a4.74 4.74 0 0 0-.44-1.05c.16-.6.63-1.28.7-1.81a6.35 6.35 0 0 0-.69-.69c-.53.07-1.22.54-1.8.7a4.74 4.74 0 0 0-1.06-.44c-.3-.52-.47-1.35-.79-1.77a6.35 6.35 0 0 0-.48-.02zm0 3.36a2.99 2.99 0 0 1 3 3 2.99 2.99 0 0 1-3 2.98 2.99 2.99 0 0 1-2.98-2.99 2.99 2.99 0 0 1 2.98-2.99z" transform="translate(-101.1 -134.21)"/></svg>